<svg width="56pt" height="56pt" viewBox="0 0 56 56" xmlns="http://www.w3.org/2000/svg">
<path d="m11.027 10.781h7.7109c1.6992 0 3.0742 1.375 3.0742 3.0703 0 1.6953-1.375 3.0703-3.0742 3.0703h-4.6445c-1.9609 0-3.5664 1.6055-3.5664 3.5664v4.2461c0 0.082031-0.035156 0.15625-0.097656 0.21094-0.0625 0.054688-0.14063 0.074219-0.22266 0.0625-2.7852-0.39844-4.9453-2.8125-4.9453-5.7031v-2.7578c0-3.1719 2.5938-5.7656 5.7656-5.7656" fill="#e84317" fill-rule="evenodd"/>
<path d="m23.578 39.004v-14.895c0-0.15234-0.125-0.27734-0.27734-0.27734h-4.0469c-0.14453 0-0.26172 0.10547-0.27734 0.24609-0.10937 0.85547-0.21875 1.7109-0.33203 2.5703-1.4258 10.754-3.8086 12.59-11.527 12.633-0.14844 0-0.27734-0.12109-0.27734-0.27344l-0.035156-1.7461c-0.015626-0.92578 0.59766-1.7148 1.4961-1.9297 3.6797-0.87891 4.2617-5.2656 4.832-9.5742 0.24609-1.8203 0.46484-3.6289 0.67578-5.4531 0.015625-0.14063 0.13281-0.24609 0.27734-0.24609 2.2773 0 15.062-0.027344 15.062 0.035156v18.91c0 0.15234-0.125 0.27734-0.28125 0.27734h-5.0117c-0.15234 0-0.27734-0.125-0.27734-0.27734" fill="#003118"/>
<path d="m35.355 32.828c-2.6562-0.89844-4.4531-3.3945-4.4531-6.2109 0-3.6211 2.9375-6.5586 6.5586-6.5586 4.0547 0 7.8477 0.035156 11.859 0.035156 0.15234 0 0.27734 0.125 0.27734 0.27734v18.633c0 0.15234-0.125 0.27734-0.27734 0.27734h-5.0156c-0.15234 0-0.27734-0.125-0.27734-0.27734v-5.5508c0-0.15234-0.125-0.27734-0.27734-0.27734h-1.5273c-0.097656 0-0.17969 0.050781-0.23438 0.13281l-4.1758 5.8398c-0.058594 0.082031-0.13672 0.13281-0.23828 0.13281h-5.8711c-0.10156 0-0.19141-0.050781-0.24219-0.14453-0.050782-0.089844-0.054688-0.19531 0.007812-0.28125l4.0352-5.6172c0.050782-0.070312 0.054688-0.15625 0.023438-0.23828s-0.089844-0.14062-0.17188-0.17188zm8.6719-3.7148v-5.0039c0-0.15234-0.125-0.27734-0.27734-0.27734h-4.4922c-1.5391 0-2.7852 1.2461-2.7852 2.7852 0 1.5391 1.2461 2.7852 2.7852 2.7852 1.5898 0 2.9023-0.011719 4.4922-0.011719 0.15234 0 0.27734-0.125 0.27734-0.27734" fill="#003118" fill-rule="evenodd"/>
<path d="m31.523 44.336v-2.8086h1.2031c0.21484 0 0.38672 0.042968 0.51953 0.12109 0.13281 0.082031 0.23047 0.17969 0.29297 0.30078 0.058594 0.12109 0.089844 0.24219 0.089844 0.36719 0 0.15625-0.039062 0.28906-0.11328 0.39062-0.074219 0.10547-0.17969 0.17578-0.3125 0.21094v-0.097657c0.1875 0.035157 0.32812 0.11719 0.42578 0.24219 0.089844 0.125 0.14062 0.26562 0.14062 0.42188 0 0.16797-0.035156 0.31641-0.10156 0.44531-0.066407 0.125-0.16797 0.22656-0.30078 0.29687-0.13672 0.074219-0.30469 0.10938-0.51172 0.10938zm0.57422-0.5h0.69922c0.078125 0 0.14453-0.015626 0.20703-0.046876 0.058594-0.027343 0.10547-0.070312 0.14062-0.12891 0.035157-0.054687 0.050781-0.11719 0.050781-0.19531 0-0.066406-0.015624-0.125-0.042968-0.17578-0.03125-0.050781-0.074219-0.09375-0.13281-0.125-0.058593-0.027343-0.13281-0.042968-0.22266-0.042968h-0.69922zm0-1.2109h0.62109c0.0625 0 0.12109-0.011719 0.17188-0.03125s0.089844-0.054688 0.11719-0.097656c0.03125-0.042969 0.042969-0.097656 0.042969-0.16797 0-0.085937-0.027343-0.15625-0.082031-0.21484-0.058594-0.058593-0.14062-0.089843-0.25-0.089843h-0.62109z" fill="#191917"/>
<path d="m35.898 44.395c-0.30078 0-0.5625-0.0625-0.78125-0.18359-0.21875-0.12109-0.38672-0.29297-0.50391-0.51172-0.11719-0.21875-0.17578-0.47656-0.17578-0.76562 0-0.29297 0.058594-0.54688 0.17578-0.76562 0.11719-0.22266 0.28516-0.39062 0.50391-0.51562 0.21875-0.12109 0.48047-0.17969 0.78125-0.17969 0.30078 0 0.55859 0.058594 0.77734 0.17969 0.21875 0.125 0.38672 0.29297 0.50391 0.51562 0.11719 0.21875 0.17969 0.47266 0.17969 0.76562 0 0.28906-0.0625 0.54688-0.17969 0.76562-0.11719 0.21875-0.28516 0.39062-0.50391 0.51172-0.21875 0.12109-0.47656 0.18359-0.77734 0.18359zm0-0.5c0.19141 0.003907 0.34766-0.035156 0.47656-0.11328 0.125-0.082031 0.22266-0.19141 0.28516-0.33984 0.0625-0.14453 0.09375-0.3125 0.09375-0.50781 0-0.19531-0.03125-0.36328-0.09375-0.50781s-0.16016-0.25391-0.28516-0.33203c-0.12891-0.082031-0.28516-0.12109-0.47656-0.125-0.19141 0-0.35156 0.035156-0.47656 0.11719-0.12891 0.078124-0.22266 0.19141-0.28516 0.33594-0.066407 0.14453-0.097657 0.31641-0.097657 0.51172 0 0.19531 0.03125 0.36328 0.097657 0.50391 0.0625 0.14453 0.15625 0.25391 0.28516 0.33594 0.125 0.078124 0.28516 0.11719 0.47656 0.12109" fill="#191917"/>
<path d="m38.195 44.336v-2.8086h0.56641v1.2969l1.1484-1.2969h0.69141l-1.2578 1.3867 1.3398 1.4219h-0.71875l-1.2031-1.2773v1.2773z" fill="#191917"/>
<path d="m41.395 44.336v-2.8086h1.2734c0.027343 0 0.066406 0.003906 0.11719 0.003906 0.050782 0.003906 0.09375 0.007812 0.13281 0.011719 0.17969 0.027343 0.32812 0.082031 0.44141 0.16797 0.11328 0.085937 0.19922 0.19141 0.25391 0.31641 0.054688 0.12891 0.082031 0.27344 0.082031 0.42969s-0.027343 0.30078-0.082031 0.42578c-0.054687 0.12891-0.14062 0.23438-0.25781 0.32031-0.11328 0.085937-0.26172 0.14062-0.4375 0.16406-0.039063 0.007812-0.085938 0.011718-0.13672 0.011718-0.046875 0.003906-0.085938 0.003906-0.11328 0.003906h-0.70312v0.95313zm0.57031-1.4453h0.67578c0.03125 0 0.0625-0.003906 0.097656-0.003906 0.035157-0.003907 0.066407-0.007813 0.09375-0.015625 0.078125-0.019532 0.13672-0.054688 0.17969-0.10156 0.042969-0.042969 0.070312-0.09375 0.085937-0.15234 0.015625-0.054688 0.023438-0.10938 0.023438-0.16016s-0.007813-0.10547-0.023438-0.16016c-0.015625-0.058594-0.042968-0.10938-0.085937-0.15625-0.042969-0.042969-0.10156-0.078125-0.17969-0.097656-0.027343-0.007813-0.058593-0.011719-0.09375-0.015625-0.035156 0-0.066406-0.003906-0.097656-0.003906h-0.67578z" fill="#191917"/>
<path d="m44.891 44.336 0.41797-0.78906-1.0273-2.0195h0.64453l0.67969 1.4648 0.70703-1.4648h0.60938l-1.4219 2.8086z" fill="#191917"/>
<path d="m47.633 44.336v-2.8086h1.9648v0.49609h-1.3984v2.3125z" fill="#191917"/>
</svg>